<?xml version="1.0" encoding="UTF-8"?>
<svg version="1.1" xmlns="http://www.w3.org/2000/svg" width="503" height="593">
<path d="M0 0 C0.210174 26.10333841 0.36891642 52.20655016 0.46630955 78.31056404 C0.51273154 90.43096309 0.57602837 102.55083666 0.67895508 114.67089844 C0.76861599 125.23388416 0.82671346 135.79648937 0.84679645 146.35984504 C0.85853763 151.9541222 0.88615831 157.54731071 0.95157051 163.14123917 C1.01263654 168.40611967 1.03150955 173.66946276 1.01796913 178.93466377 C1.02044628 180.86729729 1.03836596 182.7999819 1.07284927 184.73230934 C1.32107061 199.35857425 1.32107061 199.35857425 -1.96587467 203.44259262 C-4.2793558 205.01621633 -6.3829229 206.03799056 -9 207 C-9.999104 207.60585938 -10.99820801 208.21171875 -12.02758789 208.8359375 C-12.91696045 209.34382812 -13.80633301 209.85171875 -14.72265625 210.375 C-15.74311035 210.96031494 -16.76356445 211.54562988 -17.81494141 212.14868164 C-18.88663574 212.7596167 -19.95833008 213.37055176 -21.0625 214 C-22.79535203 214.99372957 -24.52819851 215.98746909 -26.26062012 216.98194885 C-27.44020364 217.65906019 -28.61997316 218.33584761 -29.79992676 219.01231384 C-35.59153297 222.3340618 -41.36044973 225.69408383 -47.125 229.0625 C-48.10605713 229.63548828 -49.08711426 230.20847656 -50.09790039 230.79882812 C-52.07611965 231.95440064 -54.05422877 233.11016172 -56.03222656 234.26611328 C-61.01990957 237.1801084 -66.01008705 240.08982568 -71 243 C-73.0000118 244.16664643 -75.00001181 245.33331309 -77 246.5 C-161.00000002 295.50000001 -161.00000002 295.50000001 -164.00170898 297.25097656 C-165.996036 298.41434752 -167.99033949 299.57775879 -169.98461914 300.74121094 C-175.07122098 303.70863778 -180.15826521 306.67530184 -185.24609375 309.640625 C-186.78692627 310.54010864 -186.78692627 310.54010864 -188.35888672 311.45776367 C-190.3900443 312.64021631 -192.42417387 313.81758044 -194.46142578 314.98950195 C-199.04294437 317.63379456 -203.54581869 320.32085107 -207.93359375 323.27734375 C-208.690354 323.77137695 -209.44711426 324.26541016 -210.22680664 324.77441406 C-211.60648597 325.68196991 -212.96639614 326.62074515 -214.29858398 327.59667969 C-216.27234627 328.8730998 -217.6770817 329.61570628 -220 330 C-223.71171781 328.97209027 -226.74930375 327.02681928 -230 325 C-230.9595459 324.44368896 -231.9190918 323.88737793 -232.90771484 323.31420898 C-236.12444823 321.44877044 -239.31288885 319.54057181 -242.5 317.625 C-244.90089391 316.19027123 -247.3037452 314.75884245 -249.70703125 313.328125 C-250.31468826 312.96613007 -250.92234528 312.60413513 -251.54841614 312.23117065 C-257.72856901 308.55539178 -263.95345293 304.95851686 -270.1875 301.375 C-281.49521621 294.87225512 -292.77023318 288.3154506 -304.03222656 281.73388672 C-309.01990957 278.8198916 -314.01008705 275.91017432 -319 273 C-321.0000118 271.83335357 -323.00001181 270.66668691 -325 269.5 C-326.485 268.63375 -326.485 268.63375 -328 267.75 C-347 256.66666667 -366 245.58333333 -385 234.5 C-385.99088623 233.9220166 -386.98177246 233.3440332 -388.00268555 232.74853516 C-389.99385191 231.58695387 -391.98490094 230.42517144 -393.97583008 229.26318359 C-399.1100195 226.26701343 -404.24647263 223.27483151 -409.38671875 220.2890625 C-414.40251934 217.37461107 -419.41207737 214.44976365 -424.41552734 211.51416016 C-426.04413171 210.56001276 -427.67443617 209.60875565 -429.30712891 208.66162109 C-431.21118581 207.55570922 -433.10688408 206.43700062 -435 205.3125 C-436.485 204.44044922 -436.485 204.44044922 -438 203.55078125 C-438.66 203.03902344 -439.32 202.52726563 -440 202 C-440 201.01 -440 200.02 -440 199 C-438.9162207 198.38294189 -438.9162207 198.38294189 -437.81054688 197.75341797 C-425.05454153 190.48700747 -412.30683224 183.20786178 -399.625 175.8125 C-398.66102295 175.25288574 -397.6970459 174.69327148 -396.70385742 174.11669922 C-391.69195882 171.19748219 -386.72257603 168.22434072 -381.79296875 165.16796875 C-380.78862793 164.55268311 -379.78428711 163.93739746 -378.74951172 163.3034668 C-376.83667112 162.12889045 -374.93275853 160.93960825 -373.03955078 159.73364258 C-372.18731934 159.21310303 -371.33508789 158.69256348 -370.45703125 158.15625 C-369.71428955 157.69025391 -368.97154785 157.22425781 -368.20629883 156.74414062 C-366 156 -366 156 -363.5546875 156.67871094 C-360.88678748 158.05855372 -358.26543372 159.47541314 -355.66796875 160.984375 C-354.63462402 161.58258057 -353.6012793 162.18078613 -352.53662109 162.79711914 C-351.43141113 163.44156982 -350.32620117 164.08602051 -349.1875 164.75 C-348.02180155 165.42661701 -346.85594617 166.10296373 -345.68994141 166.77905273 C-342.69938419 168.51434754 -339.71129784 170.25384502 -336.72418213 171.99505615 C-335.09038605 172.94731826 -333.45609607 173.89873283 -331.82177734 174.85009766 C-325.86716459 178.31650208 -319.91651286 181.78964093 -313.96777344 185.26611328 C-308.98009048 188.18010837 -303.98994228 191.08987604 -299 194 C-293.0222321 197.48622181 -287.04494011 200.97324222 -281.0703125 204.46484375 C-269.44591492 211.25569283 -257.80575122 218.01751487 -246.12475586 224.71069336 C-241.44062566 227.40177418 -236.77764766 230.10620248 -232.203125 232.98046875 C-231.51033447 233.41319092 -230.81754395 233.84591309 -230.10375977 234.29174805 C-228.34596094 235.40008623 -226.60007828 236.5272647 -224.85546875 237.65625 C-221.47912135 239.24511936 -220.50893801 238.99469332 -217 238 C-214.75042464 236.93416233 -214.75042464 236.93416233 -212.54296875 235.55078125 C-211.69041504 235.03974854 -210.83786133 234.52871582 -209.95947266 234.00219727 C-209.04472168 233.44459717 -208.1299707 232.88699707 -207.1875 232.3125 C-205.19967005 231.11903965 -203.21137262 229.92635768 -201.22265625 228.734375 C-200.19543457 228.11626953 -199.16821289 227.49816406 -198.10986328 226.86132812 C-193.13935879 223.88636139 -188.13265643 220.97434882 -183.125 218.0625 C-181.10672755 216.88679305 -179.08849863 215.71101138 -177.0703125 214.53515625 C-176.06774414 213.95137207 -175.06517578 213.36758789 -174.03222656 212.76611328 C-170.01907158 210.42866053 -166.00751279 208.08847715 -161.99609375 205.74804688 C-158.99498072 203.99707154 -155.993584 202.24658313 -152.9921875 200.49609375 C-149.01723501 198.17747926 -145.04336383 195.85702684 -141.0703125 193.53515625 C-128.63629663 186.2709926 -116.1777546 179.05069816 -103.69921875 171.86328125 C-102.73466263 171.27584137 -101.77010651 170.68840149 -100.77632141 170.0831604 C-98.01108461 168.4697091 -95.22645356 167.27071143 -92.24391174 166.11213684 C-82.91344459 162.22132505 -82.91344459 162.22132505 -76.96487999 154.49749947 C-75.652348 148.1043888 -75.92880684 141.67144159 -76.26441193 135.18491745 C-76.45612255 131.465278 -76.5298518 127.75894494 -76.57513428 124.03482056 C-76.68341837 116.81334366 -76.91803973 109.59914257 -77.17848969 102.38193512 C-77.52833895 92.56342477 -77.79618279 82.74616669 -77.93550873 72.92213821 C-78.014462 69.26481094 -78.18664142 65.61981485 -78.36456299 61.96615601 C-78.82888755 46.41223732 -78.82888755 46.41223732 -75.57096672 42.11515617 C-72.07205706 39.05904033 -68.20375147 37.27719151 -63.86357307 35.71586132 C-61.08933236 34.65018182 -58.64622362 33.11557916 -56.12890625 31.55078125 C-54.27399828 30.47039079 -52.41852117 29.39097695 -50.5625 28.3125 C-48.49607757 27.10940279 -46.42967183 25.90627691 -44.36328125 24.703125 C-42.79634521 23.79143555 -42.79634521 23.79143555 -41.19775391 22.86132812 C-35.87950453 19.76571557 -30.56492501 16.66381551 -25.25 13.5625 C-22.44924933 11.92866943 -19.64851223 10.29484807 -16.84570312 8.66455078 C-14.79231586 7.46345312 -12.74484519 6.25222053 -10.70117188 5.03466797 C-9.61900391 4.39287598 -8.53683594 3.75108398 -7.421875 3.08984375 C-6.4328418 2.49937256 -5.44380859 1.90890137 -4.42480469 1.30053711 C-2 0 -2 0 0 0 Z " fill="#183960" transform="translate(467,222)"/>
<path d="M0 0 C2.07554029 1.18819678 4.15920474 2.36229398 6.25 3.5234375 C8.50101123 4.80551782 10.75096733 6.08945203 13 7.375 C13.60060242 7.71804169 14.20120483 8.06108337 14.82000732 8.41452026 C24.9362471 14.19653203 34.97378414 20.10221193 44.9855957 26.06347656 C53.76011321 31.28258691 62.58749131 36.40432193 71.4375 41.49414062 C81.66139385 47.37442866 91.84933435 53.31518138 102.03222656 59.26611328 C107.01990957 62.1801084 112.01008705 65.08982568 117 68 C119.0000118 69.16664643 121.00001181 70.33331309 123 71.5 C123.99 72.0775 124.98 72.655 126 73.25 C137 79.66666667 148 86.08333333 159 92.5 C159.99128906 93.0782251 160.98257812 93.6564502 162.00390625 94.25219727 C163.99098 95.41137759 165.97796017 96.57071836 167.96484375 97.73022461 C173.16183399 100.76279817 178.36073247 103.79203343 183.5625 106.81640625 C184.64015625 107.44353516 185.7178125 108.07066406 186.828125 108.71679688 C188.87960354 109.91054516 190.93164906 111.10331984 192.984375 112.29492188 C198.38454848 115.4388074 203.72072019 118.65687116 209 122 C207.52934939 125.83951503 205.68131309 127.07311271 202.109375 128.99609375 C201.10124756 129.5478125 200.09312012 130.09953125 199.05444336 130.66796875 C197.96397705 131.25191406 196.87351074 131.83585938 195.75 132.4375 C193.45323317 133.69443543 191.1576811 134.95359283 188.86328125 136.21484375 C187.70650879 136.84890137 186.54973633 137.48295898 185.35791016 138.13623047 C180.49678921 140.83433992 175.71318665 143.65417201 170.9375 146.5 C170.0599707 147.01892822 169.18244141 147.53785645 168.27832031 148.07250977 C163.33188067 151.00075532 158.41088187 153.96702269 153.50390625 156.9609375 C151.33607569 158.2658546 149.16810993 159.57054713 147 160.875 C145.9905835 161.50083984 144.98116699 162.12667969 143.94116211 162.77148438 C142.99120361 163.33931641 142.04124512 163.90714844 141.0625 164.4921875 C139.81146484 165.25571533 139.81146484 165.25571533 138.53515625 166.03466797 C135.22111849 167.29658104 133.3971924 166.94079896 130 166 C127.31298828 164.73168945 127.31298828 164.73168945 124.5703125 163.11328125 C123.54019043 162.51185303 122.51006836 161.9104248 121.44873047 161.29077148 C120.35189941 160.63794189 119.25506836 159.9851123 118.125 159.3125 C116.96422659 158.63070203 115.80292192 157.9498078 114.64111328 157.26977539 C112.25336708 155.87044649 109.86864006 154.46617723 107.48632812 153.05761719 C103.27549435 150.56929159 99.04768339 148.11038212 94.81982422 145.65112305 C91.85454565 143.9255974 88.89173586 142.19590781 85.9296875 140.46484375 C79.95505983 136.97324219 73.97773276 133.48628214 68 130 C65.9999882 128.83335357 63.99998819 127.66668691 62 126.5 C61.01 125.9225 60.02 125.345 59 124.75 C56 123 53 121.25 50 119.5 C49.00943604 118.92217773 48.01887207 118.34435547 46.99829102 117.74902344 C45.003964 116.58565248 43.00966051 115.42224121 41.01538086 114.25878906 C35.92877902 111.29136222 30.84173479 108.32469816 25.75390625 105.359375 C24.72628174 104.7600415 23.69865723 104.16070801 22.63989258 103.54321289 C20.61084896 102.36087847 18.58076056 101.18033497 16.54956055 100.00170898 C11.9650664 97.33735006 7.40249599 94.64914042 2.890625 91.86328125 C2.11130615 91.38729492 1.3319873 90.91130859 0.52905273 90.42089844 C-0.90093175 89.54454271 -2.32393784 88.65664679 -3.73803711 87.75488281 C-7.31557353 85.52919596 -7.31557353 85.52919596 -11.40429688 85.23339844 C-14.21064816 86.06221174 -16.38136965 87.17143846 -18.89453125 88.66796875 C-19.83731934 89.22411865 -20.78010742 89.78026855 -21.75146484 90.35327148 C-22.76160645 90.95856689 -23.77174805 91.5638623 -24.8125 92.1875 C-26.98818433 93.47412225 -29.1639683 94.76057601 -31.33984375 96.046875 C-32.44956543 96.70623047 -33.55928711 97.36558594 -34.70263672 98.04492188 C-39.74517208 101.03475033 -44.80966822 103.98651454 -49.875 106.9375 C-50.86048828 107.51282471 -51.84597656 108.08814941 -52.86132812 108.6809082 C-60.16230915 112.94040449 -67.4852646 117.16087626 -74.8125 121.375 C-84.87874295 127.16681543 -94.87989992 133.06189165 -104.86083984 138.99926758 C-114.8868719 144.95445394 -124.97849658 150.78887067 -135.08984375 156.59765625 C-135.99750488 157.15052811 -136.90516602 157.70339996 -137.84033203 158.27302551 C-141 160 -141 160 -144.15698242 160.9818573 C-148.14590376 162.46353605 -150.21421381 163.74205175 -153 167 C-155.35666879 174.97912193 -154.45696763 183.86070879 -154.28515625 192.078125 C-154.27759263 194.57199041 -154.27575668 197.06587921 -154.27940369 199.55975342 C-154.27598028 205.4465905 -154.2215225 211.3311188 -154.1399855 217.21735835 C-153.98792827 228.39217201 -153.96478225 239.56786703 -153.93044853 250.74355316 C-153.91035227 254.41729186 -153.86527577 258.09004576 -153.81544495 261.76348877 C-153.79602996 264.00540933 -153.77688565 266.24733225 -153.75805664 268.48925781 C-153.73776901 269.51475739 -153.71748138 270.54025696 -153.69657898 271.59683228 C-153.69177521 272.5332254 -153.68697144 273.46961853 -153.68202209 274.43438721 C-153.67104524 275.24845661 -153.66006838 276.06252602 -153.64875889 276.90126419 C-154.08989215 279.53712353 -154.94469119 280.3473052 -157 282 C-158.68391363 283.07314233 -160.4009328 284.09499189 -162.13671875 285.08203125 C-163.17666992 285.67709473 -164.21662109 286.2721582 -165.28808594 286.88525391 C-166.40989258 287.52124512 -167.53169922 288.15723633 -168.6875 288.8125 C-170.45913007 289.82440926 -172.22972419 290.8381164 -174.00033569 291.85180664 C-175.21194698 292.54524262 -176.42388489 293.23810819 -177.63613892 293.93041992 C-183.52695277 297.29518849 -189.39164989 300.70404091 -195.25 304.125 C-196.70466675 304.97276001 -196.70466675 304.97276001 -198.1887207 305.83764648 C-203.2469523 308.78993322 -208.29121079 311.7639622 -213.3203125 314.765625 C-214.84543457 315.67417236 -214.84543457 315.67417236 -216.40136719 316.60107422 C-218.34446927 317.76023511 -220.28532983 318.92316399 -222.22363281 320.09033203 C-223.08569336 320.60450684 -223.94775391 321.11868164 -224.8359375 321.6484375 C-225.59438965 322.10395996 -226.3528418 322.55948242 -227.13427734 323.02880859 C-229 324 -229 324 -231 324 C-231 257.34 -231 190.68 -231 122 C-221.76 116.72 -212.52 111.44 -203 106 C-192.82506512 99.97915068 -192.82506512 99.97915068 -182.66015625 93.94140625 C-175.00023395 89.3943436 -167.28426296 84.94680117 -159.5625 80.50585938 C-149.33860615 74.62557134 -139.15066565 68.68481862 -128.96777344 62.73388672 C-123.98009043 59.8198916 -118.98991295 56.91017432 -114 54 C-111.9999882 52.83335357 -109.99998819 51.66668691 -108 50.5 C-90 40 -90 40 -72 29.5 C-71.00959717 28.9222583 -70.01919434 28.3445166 -68.9987793 27.74926758 C-67.00287193 26.58500182 -65.00694102 25.42077643 -63.01098633 24.2565918 C-53.87502581 18.92798346 -53.87502581 18.92798346 -44.74291992 13.59277344 C-42.72450588 12.41672268 -40.70258001 11.24667621 -38.67700195 10.08300781 C-33.9073893 7.3354716 -29.23105037 4.52747517 -24.65625 1.46484375 C-23.81489502 0.92174561 -22.97354004 0.37864746 -22.10668945 -0.1809082 C-20.54648855 -1.19285807 -19.00846112 -2.24026956 -17.50073242 -3.32885742 C-10.46022858 -7.80163853 -6.36995421 -4.19424326 0 0 Z " fill="#BC181E" transform="translate(257,43)"/>
<path d="M0 0 C1.86544891 0.99058994 3.70107989 2.03878994 5.5078125 3.1328125 C6.56226563 3.76574219 7.61671875 4.39867187 8.703125 5.05078125 C9.25935547 5.38803223 9.81558594 5.7252832 10.38867188 6.07275391 C13.39972337 7.8975053 16.42279035 9.70214608 19.4453125 11.5078125 C20.07044739 11.88174133 20.69558228 12.25567017 21.33966064 12.64093018 C27.84085858 16.52017533 34.41540249 20.26431117 41 24 C66.7300325 38.61721332 66.7300325 38.61721332 77.94984436 45.69934082 C81.00462574 47.5385673 84.1108274 48.89931961 87.41136169 50.24316406 C102.09282311 56.72222713 102.09282311 56.72222713 105.27336884 63.85614967 C107.14227836 71.69172134 106.91108614 79.69772597 106.658777 87.6996634 C106.56865031 91.19912799 106.59487643 94.69806359 106.60456848 98.19841003 C106.60342276 104.06881423 106.5163728 109.93293483 106.3737793 115.80151367 C106.21010161 122.5696245 106.17012301 129.32967732 106.1987049 136.09952432 C106.22460115 142.64080621 106.1763199 149.17936054 106.09005165 155.72006798 C106.05399451 158.49096879 106.04112658 161.26050706 106.0469265 164.03162575 C106.04620266 184.95094996 106.04620266 184.95094996 102.71945 189.90814972 C99.30448652 193.180013 95.46913777 194.5365094 91 196 C89.08313266 197.0738322 87.18608548 198.18496562 85.32421875 199.3515625 C83.4462386 200.44430148 81.56730661 201.53540601 79.6875 202.625 C77.58721466 203.8463113 75.48695497 205.06766673 73.38671875 206.2890625 C72.32759277 206.90426758 71.2684668 207.51947266 70.17724609 208.15332031 C65.11448099 211.09590178 60.05740621 214.04822103 55 217 C48.97781941 220.51388023 42.95501593 224.02667588 36.9296875 227.53515625 C34.91144859 228.71092077 32.89321936 229.88670192 30.875 231.0625 C29.8957959 231.63242676 28.9165918 232.20235352 27.90771484 232.78955078 C22.81424128 235.75842886 17.73423569 238.74786648 12.671875 241.76953125 C11.65625488 242.37466553 10.64063477 242.9797998 9.59423828 243.60327148 C7.65281649 244.76170742 5.71358908 245.92383093 3.77685547 247.09008789 C2.91463379 247.60434326 2.05241211 248.11859863 1.1640625 248.6484375 C0.40561035 249.10395996 -0.3528418 249.55948242 -1.13427734 250.02880859 C-3 251 -3 251 -5 251 C-4.9830307 250.36353483 -4.9660614 249.72706966 -4.94857788 249.07131767 C-4.5425389 233.52775055 -4.27156406 217.98841944 -4.1476593 202.44029045 C-4.08453347 194.92045731 -3.97708421 187.4063146 -3.76220703 179.88916016 C-3.57484341 173.33047448 -3.47377189 166.77684605 -3.47284317 160.21539128 C-3.46942584 156.74353878 -3.42523409 153.28385682 -3.27728271 149.81490707 C-2.68023406 137.10129292 -2.68023406 137.10129292 -6 125 C-11.68743581 118.83507424 -19.20551243 115.59358994 -26.82449341 112.41031265 C-32.13820602 110.05037545 -37.03288997 107.00564229 -42 104 C-43.99815518 102.83017652 -45.99794678 101.66313973 -48 100.5 C-52 98.16666667 -56 95.83333333 -60 93.5 C-60.99104736 92.92193604 -61.98209473 92.34387207 -63.00317383 91.74829102 C-64.99275989 90.5876046 -66.98218189 89.42663689 -68.97143555 88.26538086 C-74.12942341 85.2548278 -79.29061568 82.24997674 -84.45703125 79.25390625 C-86.05321289 78.32674805 -86.05321289 78.32674805 -87.68164062 77.38085938 C-89.6935906 76.21234695 -91.70653007 75.04553567 -93.72070312 73.88085938 C-100.25471594 70.08265095 -106.65207016 66.10132471 -113 62 C-110.08252244 58.83548318 -107.18463869 56.76705881 -103.43359375 54.671875 C-101.76659424 53.73202759 -101.76659424 53.73202759 -100.06591797 52.77319336 C-99.47566833 52.44415009 -98.8854187 52.11510681 -98.27728271 51.77609253 C-95.10518206 50.00693318 -91.94573519 48.21541748 -88.78515625 46.42578125 C-88.13498535 46.05824234 -87.48481445 45.69070343 -86.81494141 45.31202698 C-80.28106689 41.61031252 -73.82441671 37.78452879 -67.375 33.9375 C-57.45348837 28.02719631 -47.49069455 22.19650936 -37.46142578 16.47070312 C-32.14926157 13.43052572 -26.88799729 10.33596871 -21.69140625 7.1015625 C-20.68956299 6.48498779 -19.68771973 5.86841309 -18.65551758 5.2331543 C-16.76835465 4.06685875 -14.89114186 2.88424971 -13.02612305 1.68286133 C-11.76795776 0.90978638 -11.76795776 0.90978638 -10.484375 0.12109375 C-9.75959961 -0.3385376 -9.03482422 -0.79816895 -8.28808594 -1.27172852 C-4.95190656 -2.33359611 -3.16511879 -1.37222401 0 0 Z " fill="#193960" transform="translate(251,169)"/>
<path d="M0 0 C1.86544891 0.99058994 3.70107989 2.03878994 5.5078125 3.1328125 C6.56226563 3.76574219 7.61671875 4.39867187 8.703125 5.05078125 C9.25935547 5.38803223 9.81558594 5.7252832 10.38867188 6.07275391 C13.39972337 7.8975053 16.42279035 9.70214608 19.4453125 11.5078125 C20.07044739 11.88174133 20.69558228 12.25567017 21.33966064 12.64093018 C27.8408539 16.52017254 34.41532008 20.26446488 41 24 C51.50210963 29.96362656 61.91260149 36.065259 72.28833008 42.24609375 C82.45281777 48.29273815 92.70475647 54.17927283 103 60 C102 63 102 63 100.15429688 64.12744141 C99.35056641 64.49015137 98.54683594 64.85286133 97.71875 65.2265625 C91.40609399 68.2284319 85.48736596 71.77637137 79.5 75.375 C77.09910609 76.80972877 74.6962548 78.24115755 72.29296875 79.671875 C71.68531174 80.03386993 71.07765472 80.39586487 70.45158386 80.76882935 C64.27143087 84.44460829 58.04654234 88.04147464 51.8125 91.625 C40.42811426 98.17203281 29.07235296 104.7663538 17.73730469 111.3984375 C15.93363056 112.45374452 14.1296025 113.50844688 12.32519531 114.5625 C9.9033117 115.97749172 7.48266463 117.3945707 5.0625 118.8125 C4.352146 119.22733643 3.64179199 119.64217285 2.90991211 120.06958008 C-0.22492522 121.7896956 -0.22492522 121.7896956 -3 124 C-6.92828232 124.36028501 -9.12368913 123.69277163 -12.45703125 121.6484375 C-13.73586182 120.87705444 -13.73586182 120.87705444 -15.04052734 120.09008789 C-15.95527832 119.52410889 -16.8700293 118.95812988 -17.8125 118.375 C-19.80025364 117.17230464 -21.78855382 115.97051221 -23.77734375 114.76953125 C-24.80456543 114.1451416 -25.83178711 113.52075195 -26.89013672 112.87744141 C-31.8518893 109.88200434 -36.86315794 106.97307965 -41.875 104.0625 C-43.89334344 102.88691492 -45.91157197 101.71113254 -47.9296875 100.53515625 C-48.93225586 99.95137207 -49.93482422 99.36758789 -50.96777344 98.76611328 C-56.97094651 95.26957914 -62.97124981 91.7681191 -68.97094727 88.265625 C-74.12912268 85.25503324 -79.29045864 82.25006781 -84.45703125 79.25390625 C-86.05321289 78.32674805 -86.05321289 78.32674805 -87.68164062 77.38085938 C-89.6935906 76.21234695 -91.70653007 75.04553567 -93.72070312 73.88085938 C-100.25471594 70.08265095 -106.65207016 66.10132471 -113 62 C-110.08252244 58.83548318 -107.18463869 56.76705881 -103.43359375 54.671875 C-101.76659424 53.73202759 -101.76659424 53.73202759 -100.06591797 52.77319336 C-99.47566833 52.44415009 -98.8854187 52.11510681 -98.27728271 51.77609253 C-95.10518206 50.00693318 -91.94573519 48.21541748 -88.78515625 46.42578125 C-88.13498535 46.05824234 -87.48481445 45.69070343 -86.81494141 45.31202698 C-80.28106689 41.61031252 -73.82441671 37.78452879 -67.375 33.9375 C-57.45348837 28.02719631 -47.49069455 22.19650936 -37.46142578 16.47070312 C-32.14926157 13.43052572 -26.88799729 10.33596871 -21.69140625 7.1015625 C-20.68956299 6.48498779 -19.68771973 5.86841309 -18.65551758 5.2331543 C-16.76835465 4.06685875 -14.89114186 2.88424971 -13.02612305 1.68286133 C-11.76795776 0.90978638 -11.76795776 0.90978638 -10.484375 0.12109375 C-9.75959961 -0.3385376 -9.03482422 -0.79816895 -8.28808594 -1.27172852 C-4.95190656 -2.33359611 -3.16511879 -1.37222401 0 0 Z " fill="#CD1B20" transform="translate(251,169)"/>
<path d="M0 0 C-0.3242565 0.56316547 -0.64851299 1.12633095 -0.98259544 1.70656204 C-2.10765334 4.24267266 -2.25972919 5.9334333 -2.2784729 8.69500732 C-2.28963638 9.63447708 -2.30079987 10.57394684 -2.31230164 11.54188538 C-2.31446182 12.56543625 -2.31662201 13.58898712 -2.31884766 14.64355469 C-2.32889328 15.72678513 -2.3389389 16.81001556 -2.34928894 17.92607117 C-2.3801899 21.50800036 -2.3971755 25.08985457 -2.4140625 28.671875 C-2.43276856 31.1548121 -2.45234155 33.6377428 -2.4727478 36.1206665 C-2.51888147 41.98892861 -2.55626841 47.85719549 -2.58942068 53.72554421 C-2.63140927 61.0631921 -2.68697319 68.40072192 -2.7421875 75.73828125 C-2.83902392 88.82545919 -2.92378137 101.91268658 -3 115 C-3.99 115 -4.98 115 -6 115 C-5.93952698 100.3010473 -5.86207103 85.60226665 -5.76428509 70.90351295 C-5.71928118 64.07892015 -5.67987733 57.25438007 -5.65356445 50.4296875 C-5.62817461 43.84844798 -5.5873012 37.26742411 -5.53681374 30.68632126 C-5.52007684 28.17044347 -5.50860527 25.65452517 -5.50238609 23.1385994 C-5.49281907 19.62551365 -5.4648487 16.11303555 -5.43237305 12.60009766 C-5.43380814 11.55065475 -5.43524323 10.50121185 -5.4367218 9.41996765 C-5.42418365 8.46641891 -5.41164551 7.51287018 -5.39872742 6.53042603 C-5.39411845 5.69896875 -5.38950949 4.86751148 -5.38476086 4.01085854 C-5.25778977 3.34727522 -5.13081869 2.6836919 -5 2 C-2 0 -2 0 0 0 Z " fill="#73879E" transform="translate(395,264)"/>
<path d="M0 0 C0 66.33 0 132.66 0 201 C-0.33 201 -0.66 201 -1 201 C-1.00238835 199.98655832 -1.00477671 198.97311665 -1.00723743 197.92896461 C-1.06595899 173.30150514 -1.14179599 148.67414408 -1.23571491 124.04679298 C-1.28073415 112.1373241 -1.32013455 100.22788552 -1.34643555 88.31835938 C-1.36936612 77.94140561 -1.40270844 67.5645473 -1.44870156 57.18766916 C-1.47270065 51.69011719 -1.49138549 46.19266013 -1.49761391 40.69505692 C-1.50363465 35.52569358 -1.52352453 30.35657332 -1.55427551 25.18729973 C-1.56310429 23.28533932 -1.5667684 21.3833472 -1.56500816 19.48136711 C-1.56336882 16.89375644 -1.57993869 14.30689874 -1.60127258 11.71939087 C-1.59642501 10.95869974 -1.59157743 10.19800861 -1.58658296 9.41426623 C-1.58277484 7.11159327 -1.58277484 7.11159327 -2 4 C-2.99 3.34 -3.98 2.68 -5 2 C-2 0 -2 0 0 0 Z " fill="#97A5B7" transform="translate(467,222)"/>
<path d="M0 0 C0 0.66 0 1.32 0 2 C-0.99 2 -1.98 2 -3 2 C-2.67 3.98 -2.34 5.96 -2 8 C-4.475 7.01 -4.475 7.01 -7 6 C-7 5.01 -7 4.02 -7 3 C-2.77777778 0 -2.77777778 0 0 0 Z " fill="#E17679" transform="translate(146,226)"/>
</svg>
